# xmcd
#
# Track frame offsets:
#	150
#	12317
#	25699
#	37640
#	48262
#	62610
#	76991
#	88982
#	98971
#	110191
#	121043
#	134453
#	146015
#	160349
#	171962
#	185136
#	196665
#	208987
#	223439
#	237120
#	246459
#	259521
#	270836
#	282464
#	299835
#
# Disc length: 4153 seconds
#
# Revision: 0
# Processed by: cddbd v1.5.2PL0 Copyright (c) Steve Scherf et al.
# Submitted via: EZCDAudioConverter 7.0.6.1
#
DISCID=7c103719
DTITLE=Esquivel - The Space Age Sound Of... 1/2
DYEAR=1900
DGENRE=
TTITLE0=Let's Dance
TTITLE1=Besame Mucho
TTITLE2=Guadalajara
TTITLE3=(Oyeme) Cachita
TTITLE4=Fantasy
TTITLE5=I Love Paris
TTITLE6=Sentimental Journey
TTITLE7=España Cañi
TTITLE8=La Ronde
TTITLE9=Frenesi
TTITLE10=Turkish March
TTITLE11=Primavera
TTITLE12=Misirlou
TTITLE13=Port-Au-Prince
TTITLE14=My Number One Love
TTITLE15=Whatchamacallit
TTITLE16=Anna (El Negro Zumbon)
TTITLE17=Macarena (La Virgen De La Macarena)
TTITLE18=Boulevard Of Broken Dreams
TTITLE19=La Paloma
TTITLE20=My Blue Heaven
TTITLE21=Estrellita
TTITLE22=Magic Is The Moonlight (Te Quiero Dijiste)
TTITLE23=Jungle Drums (Canto Karabali)
TTITLE24=Chant Of The Night
EXTD=
EXTT0=
EXTT1=
EXTT2=
EXTT3=
EXTT4=
EXTT5=
EXTT6=
EXTT7=
EXTT8=
EXTT9=
EXTT10=
EXTT11=
EXTT12=
EXTT13=
EXTT14=
EXTT15=
EXTT16=
EXTT17=
EXTT18=
EXTT19=
EXTT20=
EXTT21=
EXTT22=
EXTT23=
EXTT24=
PLAYORDER=
